<?xml version="1.0" encoding="UTF-8" standalone="no"?><svg xmlns="http://www.w3.org/2000/svg" xmlns:xlink="http://www.w3.org/1999/xlink" contentScriptType="application/ecmascript" contentStyleType="text/css" height="542px" preserveAspectRatio="none" style="width:763px;height:542px;" version="1.1" viewBox="0 0 763 542" width="763px" zoomAndPan="magnify"><defs><filter height="300%" id="f12u36m5lyk3gb" width="300%" x="-1" y="-1"><feGaussianBlur result="blurOut" stdDeviation="2.0"/><feColorMatrix in="blurOut" result="blurOut2" type="matrix" values="0 0 0 0 0 0 0 0 0 0 0 0 0 0 0 0 0 0 .4 0"/><feOffset dx="4.0" dy="4.0" in="blurOut2" result="blurOut3"/><feBlend in="SourceGraphic" in2="blurOut3" mode="normal"/></filter></defs><g><line style="stroke:#A80036;stroke-width:1.0;stroke-dasharray:5.0,5.0;" x1="24" x2="24" y1="88.2969" y2="457.8906"/><line style="stroke:#A80036;stroke-width:1.0;stroke-dasharray:5.0,5.0;" x1="207.5" x2="207.5" y1="88.2969" y2="457.8906"/><line style="stroke:#A80036;stroke-width:1.0;stroke-dasharray:5.0,5.0;" x1="367" x2="367" y1="88.2969" y2="457.8906"/><line style="stroke:#A80036;stroke-width:1.0;stroke-dasharray:5.0,5.0;" x1="497" x2="497" y1="88.2969" y2="457.8906"/><line style="stroke:#A80036;stroke-width:1.0;stroke-dasharray:5.0,5.0;" x1="619" x2="619" y1="88.2969" y2="457.8906"/><line style="stroke:#A80036;stroke-width:1.0;stroke-dasharray:5.0,5.0;" x1="722" x2="722" y1="88.2969" y2="457.8906"/><text fill="#000000" font-family="sans-serif" font-size="14" lengthAdjust="spacing" textLength="32" x="5" y="84.9951">User</text><ellipse cx="24" cy="15" fill="#FEFECE" filter="url(#f12u36m5lyk3gb)" rx="8" ry="8" style="stroke:#A80036;stroke-width:2.0;"/><path d="M24,23 L24,50 M11,31 L37,31 M24,50 L11,65 M24,50 L37,65 " fill="none" filter="url(#f12u36m5lyk3gb)" style="stroke:#A80036;stroke-width:2.0;"/><text fill="#000000" font-family="sans-serif" font-size="14" lengthAdjust="spacing" textLength="32" x="5" y="469.8857">User</text><ellipse cx="24" cy="483.1875" fill="#FEFECE" filter="url(#f12u36m5lyk3gb)" rx="8" ry="8" style="stroke:#A80036;stroke-width:2.0;"/><path d="M24,491.1875 L24,518.1875 M11,499.1875 L37,499.1875 M24,518.1875 L11,533.1875 M24,518.1875 L37,533.1875 " fill="none" filter="url(#f12u36m5lyk3gb)" style="stroke:#A80036;stroke-width:2.0;"/><rect fill="#FEFECE" filter="url(#f12u36m5lyk3gb)" height="30.2969" style="stroke:#A80036;stroke-width:1.5;" width="103" x="154.5" y="53"/><text fill="#000000" font-family="sans-serif" font-size="14" lengthAdjust="spacing" textLength="89" x="161.5" y="72.9951">TelegramBot</text><rect fill="#FEFECE" filter="url(#f12u36m5lyk3gb)" height="30.2969" style="stroke:#A80036;stroke-width:1.5;" width="103" x="154.5" y="456.8906"/><text fill="#000000" font-family="sans-serif" font-size="14" lengthAdjust="spacing" textLength="89" x="161.5" y="476.8857">TelegramBot</text><rect fill="#FEFECE" filter="url(#f12u36m5lyk3gb)" height="30.2969" style="stroke:#A80036;stroke-width:1.5;" width="136" x="297" y="53"/><text fill="#000000" font-family="sans-serif" font-size="14" lengthAdjust="spacing" textLength="122" x="304" y="72.9951">SpeechToTextAPI</text><rect fill="#FEFECE" filter="url(#f12u36m5lyk3gb)" height="30.2969" style="stroke:#A80036;stroke-width:1.5;" width="136" x="297" y="456.8906"/><text fill="#000000" font-family="sans-serif" font-size="14" lengthAdjust="spacing" textLength="122" x="304" y="476.8857">SpeechToTextAPI</text><rect fill="#FEFECE" filter="url(#f12u36m5lyk3gb)" height="30.2969" style="stroke:#A80036;stroke-width:1.5;" width="96" x="447" y="53"/><text fill="#000000" font-family="sans-serif" font-size="14" lengthAdjust="spacing" textLength="82" x="454" y="72.9951">ChatGPTAPI</text><rect fill="#FEFECE" filter="url(#f12u36m5lyk3gb)" height="30.2969" style="stroke:#A80036;stroke-width:1.5;" width="96" x="447" y="456.8906"/><text fill="#000000" font-family="sans-serif" font-size="14" lengthAdjust="spacing" textLength="82" x="454" y="476.8857">ChatGPTAPI</text><rect fill="#FEFECE" filter="url(#f12u36m5lyk3gb)" height="30.2969" style="stroke:#A80036;stroke-width:1.5;" width="121" x="557" y="53"/><text fill="#000000" font-family="sans-serif" font-size="14" lengthAdjust="spacing" textLength="107" x="564" y="72.9951">PlantUMLServer</text><rect fill="#FEFECE" filter="url(#f12u36m5lyk3gb)" height="30.2969" style="stroke:#A80036;stroke-width:1.5;" width="121" x="557" y="456.8906"/><text fill="#000000" font-family="sans-serif" font-size="14" lengthAdjust="spacing" textLength="107" x="564" y="476.8857">PlantUMLServer</text><rect fill="#FEFECE" filter="url(#f12u36m5lyk3gb)" height="30.2969" style="stroke:#A80036;stroke-width:1.5;" width="57" x="692" y="53"/><text fill="#000000" font-family="sans-serif" font-size="14" lengthAdjust="spacing" textLength="43" x="699" y="72.9951">ZipAPI</text><rect fill="#FEFECE" filter="url(#f12u36m5lyk3gb)" height="30.2969" style="stroke:#A80036;stroke-width:1.5;" width="57" x="692" y="456.8906"/><text fill="#000000" font-family="sans-serif" font-size="14" lengthAdjust="spacing" textLength="43" x="699" y="476.8857">ZipAPI</text><polygon fill="#A80036" points="196,115.4297,206,119.4297,196,123.4297,200,119.4297" style="stroke:#A80036;stroke-width:1.0;"/><line style="stroke:#A80036;stroke-width:1.0;" x1="24" x2="202" y1="119.4297" y2="119.4297"/><text fill="#000000" font-family="sans-serif" font-size="13" lengthAdjust="spacing" textLength="94" x="31" y="114.3638">Send audio file</text><polygon fill="#A80036" points="355,144.5625,365,148.5625,355,152.5625,359,148.5625" style="stroke:#A80036;stroke-width:1.0;"/><line style="stroke:#A80036;stroke-width:1.0;" x1="208" x2="361" y1="148.5625" y2="148.5625"/><text fill="#000000" font-family="sans-serif" font-size="13" lengthAdjust="spacing" textLength="135" x="215" y="143.4966">Convert audio to text</text><polygon fill="#A80036" points="219,173.6953,209,177.6953,219,181.6953,215,177.6953" style="stroke:#A80036;stroke-width:1.0;"/><line style="stroke:#A80036;stroke-width:1.0;" x1="213" x2="366" y1="177.6953" y2="177.6953"/><text fill="#000000" font-family="sans-serif" font-size="13" lengthAdjust="spacing" textLength="103" x="225" y="172.6294">Transcribed text</text><polygon fill="#A80036" points="485,202.8281,495,206.8281,485,210.8281,489,206.8281" style="stroke:#A80036;stroke-width:1.0;"/><line style="stroke:#A80036;stroke-width:1.0;" x1="208" x2="491" y1="206.8281" y2="206.8281"/><text fill="#000000" font-family="sans-serif" font-size="13" lengthAdjust="spacing" textLength="111" x="215" y="201.7622">Generate prompt</text><polygon fill="#A80036" points="219,231.9609,209,235.9609,219,239.9609,215,235.9609" style="stroke:#A80036;stroke-width:1.0;"/><line style="stroke:#A80036;stroke-width:1.0;" x1="213" x2="496" y1="235.9609" y2="235.9609"/><text fill="#000000" font-family="sans-serif" font-size="13" lengthAdjust="spacing" textLength="119" x="225" y="230.895">Generated prompt</text><polygon fill="#A80036" points="485,261.0938,495,265.0938,485,269.0938,489,265.0938" style="stroke:#A80036;stroke-width:1.0;"/><line style="stroke:#A80036;stroke-width:1.0;" x1="208" x2="491" y1="265.0938" y2="265.0938"/><text fill="#000000" font-family="sans-serif" font-size="13" lengthAdjust="spacing" textLength="190" x="215" y="260.0278">Generate sequence diagrams</text><polygon fill="#A80036" points="219,290.2266,209,294.2266,219,298.2266,215,294.2266" style="stroke:#A80036;stroke-width:1.0;"/><line style="stroke:#A80036;stroke-width:1.0;" x1="213" x2="496" y1="294.2266" y2="294.2266"/><text fill="#000000" font-family="sans-serif" font-size="13" lengthAdjust="spacing" textLength="198" x="225" y="289.1606">Generated sequence diagrams</text><polygon fill="#A80036" points="607.5,319.3594,617.5,323.3594,607.5,327.3594,611.5,323.3594" style="stroke:#A80036;stroke-width:1.0;"/><line style="stroke:#A80036;stroke-width:1.0;" x1="208" x2="613.5" y1="323.3594" y2="323.3594"/><text fill="#000000" font-family="sans-serif" font-size="13" lengthAdjust="spacing" textLength="190" x="215" y="318.2935">Generate SVG representation</text><polygon fill="#A80036" points="219,348.4922,209,352.4922,219,356.4922,215,352.4922" style="stroke:#A80036;stroke-width:1.0;"/><line style="stroke:#A80036;stroke-width:1.0;" x1="213" x2="618.5" y1="352.4922" y2="352.4922"/><text fill="#000000" font-family="sans-serif" font-size="13" lengthAdjust="spacing" textLength="198" x="225" y="347.4263">Generated SVG representation</text><polygon fill="#A80036" points="710.5,377.625,720.5,381.625,710.5,385.625,714.5,381.625" style="stroke:#A80036;stroke-width:1.0;"/><line style="stroke:#A80036;stroke-width:1.0;" x1="208" x2="716.5" y1="381.625" y2="381.625"/><text fill="#000000" font-family="sans-serif" font-size="13" lengthAdjust="spacing" textLength="218" x="215" y="376.5591">Compress PlantUML and SVG files</text><polygon fill="#A80036" points="219,406.7578,209,410.7578,219,414.7578,215,410.7578" style="stroke:#A80036;stroke-width:1.0;"/><line style="stroke:#A80036;stroke-width:1.0;" x1="213" x2="721.5" y1="410.7578" y2="410.7578"/><text fill="#000000" font-family="sans-serif" font-size="13" lengthAdjust="spacing" textLength="125" x="225" y="405.6919">Compressed zip file</text><polygon fill="#A80036" points="35,435.8906,25,439.8906,35,443.8906,31,439.8906" style="stroke:#A80036;stroke-width:1.0;"/><line style="stroke:#A80036;stroke-width:1.0;" x1="29" x2="207" y1="439.8906" y2="439.8906"/><text fill="#000000" font-family="sans-serif" font-size="13" lengthAdjust="spacing" textLength="160" x="41" y="434.8247">Send compressed zip file</text><!--MD5=[11d186d8a55d512f9a2266f2e1ec8649]
@startuml
actor User

User -> TelegramBot: Send audio file
TelegramBot -> SpeechToTextAPI: Convert audio to text
SpeechToTextAPI -> TelegramBot: Transcribed text

TelegramBot -> ChatGPTAPI: Generate prompt
ChatGPTAPI -> TelegramBot: Generated prompt

TelegramBot -> ChatGPTAPI: Generate sequence diagrams
ChatGPTAPI -> TelegramBot: Generated sequence diagrams

TelegramBot -> PlantUMLServer: Generate SVG representation
PlantUMLServer -> TelegramBot: Generated SVG representation

TelegramBot -> ZipAPI: Compress PlantUML and SVG files
ZipAPI -> TelegramBot: Compressed zip file

TelegramBot -> User: Send compressed zip file
@enduml

PlantUML version 1.2021.00(Sun Jan 10 05:25:05 COT 2021)
(MIT source distribution)
Java Runtime: OpenJDK Runtime Environment
JVM: OpenJDK 64-Bit Server VM
Default Encoding: UTF-8
Language: en
Country: US
--></g></svg>